<svg width="100" height="18" viewBox="0 0 100 18" fill="none" xmlns="http://www.w3.org/2000/svg">
    <path d="M99.9993 3.21002H94.2449V17.3859H92.1397V3.21002H86.3652V1.32526H99.9993V3.21002Z" fill="black"/>
    <path d="M84.414 17.3859H81.9277L78.2786 11.6714C77.9779 11.6915 77.6771 11.7115 77.3764 11.7115H73.4666V17.3859H71.3613V1.32526H77.3764C81.4265 1.32526 83.8125 3.35038 83.8125 6.51839C83.8125 8.78411 82.5894 10.4684 80.3839 11.2503L84.414 17.3859ZM77.216 9.82675C80.0029 9.82675 81.7072 8.68386 81.7072 6.51839C81.7072 4.35291 80.0029 3.21002 77.216 3.21002H73.4666V9.82675H77.216Z" fill="black"/>
    <path d="M59.1296 17.4827C54.2575 17.4827 50.6484 13.9337 50.6484 9.08148C50.6484 4.22921 54.2374 0.680237 59.1096 0.680237C63.9818 0.680237 67.5908 4.22921 67.5908 9.08148C67.5908 13.9337 64.0018 17.4827 59.1296 17.4827ZM59.1296 15.5578C62.7788 15.5578 65.4855 12.851 65.4855 9.08148C65.4855 5.2919 62.7788 2.6051 59.1096 2.6051C55.4404 2.6051 52.7537 5.2919 52.7537 9.08148C52.7537 12.851 55.4605 15.5578 59.1296 15.5578Z" fill="black"/>
    <path d="M35.6992 1.32526H41.3935C45.5639 1.32526 48.01 3.55088 48.01 6.89935C48.01 10.2478 45.5639 12.4734 41.3935 12.4734H37.8045V17.3859H35.6992V1.32526ZM41.2331 10.5686C44.1403 10.5686 45.9047 9.28538 45.9047 6.89935C45.9047 4.51332 44.1403 3.23007 41.2331 3.23007H37.8045V10.5686H41.2331Z" fill="black"/>
    <path d="M20.4023 1.32526H31.8109V3.18997H22.5076V8.24274H31.1091V10.1075H22.5076V15.5211H31.9913V17.3859H20.4023V1.32526Z" fill="black"/>
    <path d="M8.42105 17.4827C3.50877 17.4827 0 13.9337 0 9.08142C0 4.22915 3.50877 0.680176 8.42105 0.680176C12.5113 0.680176 15.5789 3.06621 16.4211 6.13396H14.1353C13.4737 4.10884 11.208 2.60504 8.46115 2.60504C4.75188 2.60504 2.10526 5.31189 2.10526 9.08142C2.10526 12.871 4.75188 15.5979 8.50125 15.5979C11.7895 15.5979 14.2356 13.4324 14.4762 10.5251H8.0802V8.70045H16.7218V9.42228C16.7218 14.1542 13.1128 17.4827 8.42105 17.4827Z" fill="black"/>
</svg>
