<svg width="64" height="65" viewBox="0 0 64 65" fill="none" xmlns="http://www.w3.org/2000/svg">
<g clip-path="url(#clip0_1390_6180)">
<path d="M58.814 13.149C59.8543 13.606 57.0352 10.4148 53.1133 7.32849C50.827 5.53088 46.9661 3.27495 44.3753 2.30366C36.7567 -0.542862 29.4403 0.186103 24.0324 1.69589C20.2892 2.74149 17.4559 4.16294 16.0774 5.02411C12.3715 7.34521 5.17995 12.4024 1.8001 22.8511C-1.63319 33.468 1.37696 46.7963 7.5604 53.8833C16.8402 64.5208 31.5439 65.9419 42.2174 62.2317C44.8247 61.3233 55.4439 57.4343 60.6315 45.8855C64.4344 37.4245 63.2245 29.526 62.5288 26.3446C62.4665 26.0533 62.2156 25.8489 61.9203 25.8456C58.8689 25.8114 42.6184 25.6292 39.3045 25.592C38.9671 25.5882 38.6736 25.8381 38.6182 26.1797L38.2301 28.6036C37.5147 33.0349 34.2415 39.4111 27.4936 41.2809C20.4259 43.2362 13.2429 39.1664 11.3067 32.488C10.2913 28.9795 10.6342 25.1581 11.5641 22.0793C12.7911 18.0006 15.0232 15.0067 16.3508 13.6715C23.0505 6.90239 31.2226 6.79244 34.1681 6.6567C46.0298 6.09588 56.8828 12.3023 58.8186 13.1538L58.814 13.149Z" fill="#1AE57C"/>
</g>
<defs>
<clipPath id="clip0_1390_6180">
<rect width="62.9297" height="63.7453" fill="white" transform="translate(0.714844) rotate(0.642309)"/>
</clipPath>
</defs>
</svg>
