<svg width="120" height="120" viewBox="0 0 120 120" fill="none" xmlns="http://www.w3.org/2000/svg">
    <path d="M0 22.5C0 10.0736 10.0736 0 22.5 0H97.5C109.926 0 120 10.0736 120 22.5V97.5C120 109.926 109.926 120 97.5 120H22.5C10.0736 120 0 109.926 0 97.5V22.5Z" fill="#1AE57C"/>
    <path d="M0 22.5C0 10.0736 10.0736 0 22.5 0H97.5C109.926 0 120 10.0736 120 22.5V97.5C120 109.926 109.926 120 97.5 120H22.5C10.0736 120 0 109.926 0 97.5V22.5Z" fill="#1AE57C"/>
    <g clip-path="url(#clip0_922_414)">
        <path d="M86.1943 40.7764C87.3494 41.2676 78.7172 33.4003 71.5197 30.7305C58.332 25.8407 45.3803 30.6541 41.9164 32.7576C38.1073 35.0621 31.2701 39.7909 27.7675 50.2526C24.2108 60.8823 27.2409 74.2568 33.5451 81.39C43.0059 92.0922 58.0598 93.5882 69.0017 89.9114C71.6782 89.0147 82.5666 85.1589 87.9236 73.6051C91.1378 66.6785 90.91 60.1117 90.3369 56.2072C90.112 54.6661 88.8076 53.5116 87.2469 53.4878L68.3256 53.1983C66.7321 53.1739 65.3598 54.3156 65.0966 55.8867L65.0453 56.1813C64.2929 60.6234 60.9184 66.9991 53.9987 68.8435C46.7543 70.772 38.9139 66.611 36.9584 59.91C34.5707 51.7303 40.2954 43.7263 42.6894 41.3767C49.5764 34.6188 57.9497 34.2827 60.966 34.1554C73.1159 33.6474 84.1961 39.9301 86.1849 40.7763L86.1943 40.7764Z" fill="black"/>
    </g>
    <defs>
        <clipPath id="clip0_922_414">
            <rect width="64.4437" height="63.1406" fill="white" transform="translate(26.25 28.5938)"/>
        </clipPath>
    </defs>
</svg>
